ffmpeg started on 2016-11-27 at 11:16:08
Report written to "Output/NVENCh264/results/ffmpeg/sintelllhq9000k.log"
Command line:
Tools/ffmpeg/ffmpeg -benchmark -y -i Input/y4m/sintel.y4m -c:v h264_nvenc -preset llhq -b:v 9000k -an Output/NVENCh264/encoded/sintelllhq9000k.mkv
ffmpeg version N-82227-gdb23fde Copyright (c) 2000-2016 the FFmpeg developers
  built with gcc 5.4.0 (Ubuntu 5.4.0-6ubuntu1~16.04.2) 20160609
  configuration: --prefix=/home/jaroslav/ffmpeg_build --pkg-config-flags=--static --extra-cflags=-I/home/jaroslav/ffmpeg_build/include --extra-ldflags=-L/home/jaroslav/ffmpeg_build/lib --bindir=/home/jaroslav/bin --enable-gpl --enable-libass --enable-libfdk-aac --enable-libfreetype --enable-libmp3lame --enable-libopus --enable-libtheora --enable-libvorbis --enable-libvpx --enable-libx264 --enable-libx265 --enable-nvenc --enable-libmfx --enable-libxvid --enable-libgsm --enable-libopencore-amrnb --enable-version3 --enable-nonfree
  libavutil      55. 35.100 / 55. 35.100
  libavcodec     57. 66.101 / 57. 66.101
  libavformat    57. 57.100 / 57. 57.100
  libavdevice    57.  2.100 / 57.  2.100
  libavfilter     6. 66.100 /  6. 66.100
  libswscale      4.  3.100 /  4.  3.100
  libswresample   2.  4.100 /  2.  4.100
  libpostproc    54.  2.100 / 54.  2.100
Input #0, yuv4mpegpipe, from 'Input/y4m/sintel.y4m':
  Duration: 00:00:20.83, start: 0.000000, bitrate: 2057307 kb/s
    Stream #0:0: Video: rawvideo (I420 / 0x30323449), yuv420p(progressive), 4096x1744, SAR 1:1 DAR 256:109, 24 fps, 24 tbr, 24 tbn, 24 tbc
[h264_nvenc @ 0x30271c0] The variable bitrate rate-control requires the 'qmin' and/or 'qmax' option set.
Output #0, matroska, to 'Output/NVENCh264/encoded/sintelllhq9000k.mkv':
  Metadata:
    encoder         : Lavf57.57.100
    Stream #0:0: Video: h264 (h264_nvenc) (Main) (H264 / 0x34363248), yuv420p, 4096x1744 [SAR 1:1 DAR 256:109], q=-1--1, 9000 kb/s, 24 fps, 1k tbn, 24 tbc
    Metadata:
      encoder         : Lavc57.66.101 h264_nvenc
    Side data:
      cpb: bitrate max/min/avg: 0/0/9000000 buffer size: 18000000 vbv_delay: -1
Stream mapping:
  Stream #0:0 -> #0:0 (rawvideo (native) -> h264 (h264_nvenc))
Press [q] to stop, [?] for help
frame=   18 fps=0.0 q=0.0 size=       0kB time=00:00:00.00 bitrate=N/A speed=   0x    frame=   39 fps= 38 q=35.0 size=       1kB time=00:00:00.33 bitrate=  17.9kbits/s speed=0.324x    frame=   60 fps= 39 q=35.0 size=       1kB time=00:00:01.20 bitrate=   4.9kbits/s speed=0.785x    frame=   81 fps= 40 q=33.0 size=       1kB time=00:00:02.08 bitrate=   2.9kbits/s speed=1.02x    frame=  102 fps= 40 q=34.0 size=       1kB time=00:00:02.95 bitrate=   2.0kbits/s speed=1.16x    frame=  123 fps= 40 q=31.0 size=       1kB time=00:00:03.83 bitrate=   1.6kbits/s speed=1.25x    frame=  144 fps= 40 q=28.0 size=       1kB time=00:00:04.70 bitrate=   1.3kbits/s speed=1.31x    frame=  163 fps= 25 q=33.0 size=    5155kB time=00:00:05.50 bitrate=7676.6kbits/s speed=0.853x    frame=  164 fps= 16 q=33.0 size=    5155kB time=00:00:05.54 bitrate=7618.4kbits/s speed=0.55x    frame=  165 fps= 13 q=33.0 size=    5155kB time=00:00:05.58 bitrate=7562.5kbits/s speed=0.424x    frame=  186 fps= 14 q=32.0 size=    5155kB time=00:00:06.45 bitrate=6538.0kbits/s speed=0.472x    frame=  207 fps= 15 q=30.0 size=    5155kB time=00:00:07.33 bitrate=5757.9kbits/s speed=0.516x    frame=  228 fps= 15 q=29.0 size=    5155kB time=00:00:08.20 bitrate=5144.2kbits/s speed=0.558x    frame=  249 fps= 16 q=32.0 size=    5155kB time=00:00:09.08 bitrate=4648.7kbits/s speed=0.597x    frame=  269 fps= 17 q=31.0 size=   10293kB time=00:00:09.91 bitrate=8501.6kbits/s speed=0.631x    frame=  290 fps= 18 q=27.0 size=   10293kB time=00:00:10.79 bitrate=7812.4kbits/s speed=0.665x    frame=  300 fps= 18 q=31.0 size=   12038kB time=00:00:11.20 bitrate=8797.7kbits/s speed=0.669x    frame=  321 fps= 19 q=30.0 size=   12038kB time=00:00:12.08 bitrate=8160.6kbits/s speed=0.699x    frame=  342 fps= 19 q=25.0 size=   12038kB time=00:00:12.95 bitrate=7609.6kbits/s speed=0.729x    frame=  363 fps= 20 q=25.0 size=   12038kB time=00:00:13.83 bitrate=7128.3kbits/s speed=0.756x    frame=  384 fps= 20 q=25.0 size=   12038kB time=00:00:14.70 bitrate=6704.3kbits/s speed=0.782x    frame=  405 fps= 21 q=25.0 size=   12038kB time=00:00:15.58 bitrate=6327.8kbits/s speed=0.806x    frame=  425 fps= 21 q=27.0 size=   17178kB time=00:00:16.41 bitrate=8571.1kbits/s speed=0.828x    frame=  446 fps= 22 q=29.0 size=   17178kB time=00:00:17.29 bitrate=8137.4kbits/s speed=0.85x    frame=  467 fps= 22 q=30.0 size=   19143kB time=00:00:18.16 bitrate=8631.7kbits/s speed=0.871x    frame=  488 fps= 23 q=29.0 size=   19143kB time=00:00:19.04 bitrate=8235.1kbits/s speed=0.891x    frame=  500 fps= 23 q=30.0 Lsize=   22990kB time=00:00:20.79 bitrate=9057.6kbits/s speed=0.958x    
video:22985kB audio:0kB subtitle:0kB other streams:0kB global headers:0kB muxing overhead: 0.021073%
bench: utime=0.880s
bench: maxrss=1196752kB
